HIERARCHY
ROOT Hips
{
  OFFSET 5.84602e-005 68.8428 3.50346
  CHANNELS 6 Xposition Yposition Zposition Zrotation Xrotation Yrotation
  JOINT Spine
  {
    OFFSET 0 8.597 -4.6522
    CHANNELS 3 Zrotation Xrotation Yrotation
    JOINT Spine1
    {
      OFFSET 0 7.8454 0.4098
      CHANNELS 3 Zrotation Xrotation Yrotation
      JOINT Spine2
      {
        OFFSET 0 9.7078 -2.1609
        CHANNELS 3 Zrotation Xrotation Yrotation
        JOINT Neck
        {
          OFFSET 0 21.8761 -0.4549
          CHANNELS 3 Zrotation Xrotation Yrotation
          JOINT Head
          {
            OFFSET 0 12.3537 3.3602
            CHANNELS 3 Zrotation Xrotation Yrotation
            End Site
            {
              OFFSET 0.0001 18.9506 0.5657
            }
          }
        }
        JOINT LeftShoulder
        {
          OFFSET 2.2086 21.1115 7.2329
          CHANNELS 3 Zrotation Xrotation Yrotation
          JOINT LeftArm
          {
            OFFSET 13.1193 3.0282 -4.8998
            CHANNELS 3 Zrotation Xrotation Yrotation
            JOINT LeftForeArm
            {
              OFFSET 27.4081 -0.0973053 -0.2375
              CHANNELS 3 Zrotation Xrotation Yrotation
              JOINT LeftHand
              {
                OFFSET 22.8641 0.0662994 -0.1369
                CHANNELS 3 Zrotation Xrotation Yrotation
                JOINT LeftHandIndex1
                {
                  OFFSET 8.8614 0.775009 2.4612
                  CHANNELS 3 Zrotation Xrotation Yrotation
                  JOINT LeftHandIndex2
                  {
                    OFFSET 3.3146 -0.808304 0.5841
                    CHANNELS 3 Zrotation Xrotation Yrotation
                    JOINT LeftHandIndex3
                    {
                      OFFSET 2.2628 -0.552002 0.3989
                      CHANNELS 3 Zrotation Xrotation Yrotation
                      End Site
                      {
                        OFFSET 1.6102 -0.4807 0.2612
                      }
                    }
                  }
                }
                JOINT LeftHandMiddle1
                {
                  OFFSET 8.9937 0.895004 0.2143
                  CHANNELS 3 Zrotation Xrotation Yrotation
                  JOINT LeftHandMiddle2
                  {
                    OFFSET 4.0984 0.0113983 -0.0242
                    CHANNELS 3 Zrotation Xrotation Yrotation
                    JOINT LeftHandMiddle3
                    {
                      OFFSET 2.2716 0.00689697 -0.0138001
                      CHANNELS 3 Zrotation Xrotation Yrotation
                      End Site
                      {
                        OFFSET 2.0404 -0.1441 0.0027
                      }
                    }
                  }
                }
                JOINT LeftHandRing1
                {
                  OFFSET 8.5234 0.597198 -2.0164
                  CHANNELS 3 Zrotation Xrotation Yrotation
                  JOINT LeftHandRing2
                  {
                    OFFSET 3.7188 -0.188293 -0.2328
                    CHANNELS 3 Zrotation Xrotation Yrotation
                    JOINT LeftHandRing3
                    {
                      OFFSET 2.1191 -0.106598 -0.1332
                      CHANNELS 3 Zrotation Xrotation Yrotation
                      End Site
                      {
                        OFFSET 1.8737 -0.2304 -0.0886
                      }
                    }
                  }
                }
                JOINT LeftHandPinky1
                {
                  OFFSET 7.9094 -0.601089 -3.4825
                  CHANNELS 3 Zrotation Xrotation Yrotation
                  JOINT LeftHandPinky2
                  {
                    OFFSET 2.2874 -0.477005 -0.6314
                    CHANNELS 3 Zrotation Xrotation Yrotation
                    JOINT LeftHandPinky3
                    {
                      OFFSET 1.6774 -0.349396 -0.4633
                      CHANNELS 3 Zrotation Xrotation Yrotation
                      End Site
                      {
                        OFFSET 1.4888 -0.4091 -0.3416
                      }
                    }
                  }
                }
                JOINT LeftHandThumb1
                {
                  OFFSET 1.833 -1.3875 1.3896
                  CHANNELS 3 Zrotation Xrotation Yrotation
                  JOINT LeftHandThumb2
                  {
                    OFFSET 3.4129 -1.121 2.5732
                    CHANNELS 3 Zrotation Xrotation Yrotation
                    JOINT LeftHandThumb3
                    {
                      OFFSET 2.2474 -0.804199 1.6192
                      CHANNELS 3 Zrotation Xrotation Yrotation
                      End Site
                      {
                        OFFSET 1.6527 -0.5689 1.1317
                      }
                    }
                  }
                }
              }
            }
          }
        }
        JOINT RightShoulder
        {
          OFFSET -2.2086 21.1115 7.2329
          CHANNELS 3 Zrotation Xrotation Yrotation
          JOINT RightArm
          {
            OFFSET -13.1216 3.0287 -4.9007
            CHANNELS 3 Zrotation Xrotation Yrotation
            JOINT RightForeArm
            {
              OFFSET -27.4081 -0.0973053 -0.2375
              CHANNELS 3 Zrotation Xrotation Yrotation
              JOINT RightHand
              {
                OFFSET -22.8641 0.0664063 -0.1369
                CHANNELS 3 Zrotation Xrotation Yrotation
                JOINT RightHandIndex1
                {
                  OFFSET -8.8614 0.774994 2.4612
                  CHANNELS 3 Zrotation Xrotation Yrotation
                  JOINT RightHandIndex2
                  {
                    OFFSET -3.3146 -0.808304 0.5841
                    CHANNELS 3 Zrotation Xrotation Yrotation
                    JOINT RightHandIndex3
                    {
                      OFFSET -2.2628 -0.552002 0.3989
                      CHANNELS 3 Zrotation Xrotation Yrotation
                      End Site
                      {
                        OFFSET -1.6102 -0.4807 0.2612
                      }
                    }
                  }
                }
                JOINT RightHandMiddle1
                {
                  OFFSET -8.9937 0.894989 0.2143
                  CHANNELS 3 Zrotation Xrotation Yrotation
                  JOINT RightHandMiddle2
                  {
                    OFFSET -4.0984 0.0113983 -0.0242
                    CHANNELS 3 Zrotation Xrotation Yrotation
                    JOINT RightHandMiddle3
                    {
                      OFFSET -2.2716 0.00691223 -0.0138001
                      CHANNELS 3 Zrotation Xrotation Yrotation
                      End Site
                      {
                        OFFSET -2.0404 -0.1441 0.0027
                      }
                    }
                  }
                }
                JOINT RightHandRing1
                {
                  OFFSET -8.5234 0.597198 -2.0164
                  CHANNELS 3 Zrotation Xrotation Yrotation
                  JOINT RightHandRing2
                  {
                    OFFSET -3.7188 -0.188309 -0.2328
                    CHANNELS 3 Zrotation Xrotation Yrotation
                    JOINT RightHandRing3
                    {
                      OFFSET -2.1191 -0.106598 -0.1332
                      CHANNELS 3 Zrotation Xrotation Yrotation
                      End Site
                      {
                        OFFSET -1.8737 -0.2304 -0.0886
                      }
                    }
                  }
                }
                JOINT RightHandPinky1
                {
                  OFFSET -7.9094 -0.601105 -3.4825
                  CHANNELS 3 Zrotation Xrotation Yrotation
                  JOINT RightHandPinky2
                  {
                    OFFSET -2.2874 -0.477005 -0.6314
                    CHANNELS 3 Zrotation Xrotation Yrotation
                    JOINT RightHandPinky3
                    {
                      OFFSET -1.6774 -0.349396 -0.4633
                      CHANNELS 3 Zrotation Xrotation Yrotation
                      End Site
                      {
                        OFFSET -1.4888 -0.4091 -0.3416
                      }
                    }
                  }
                }
                JOINT RightHandThumb1
                {
                  OFFSET -1.833 -1.38751 1.3896
                  CHANNELS 3 Zrotation Xrotation Yrotation
                  JOINT RightHandThumb2
                  {
                    OFFSET -3.41299 -1.12099 2.5732
                    CHANNELS 3 Zrotation Xrotation Yrotation
                    JOINT RightHandThumb3
                    {
                      OFFSET -2.24741 -0.804108 1.6192
                      CHANNELS 3 Zrotation Xrotation Yrotation
                      End Site
                      {
                        OFFSET -1.6527 -0.5689 1.1317
                      }
                    }
                  }
                }
              }
            }
          }
        }
      }
    }
  }
  JOINT RightUpLeg
  {
    OFFSET -9.1966 3.8861 -0.7581
    CHANNELS 3 Zrotation Xrotation Yrotation
    JOINT RightLeg
    {
      OFFSET -0.7359 -41.0265 0
      CHANNELS 3 Zrotation Xrotation Yrotation
      JOINT RightFoot
      {
        OFFSET 0 -40.2855 0
        CHANNELS 3 Zrotation Xrotation Yrotation
        JOINT RightToeBase
        {
          OFFSET 0 -5.6122 11.7359
          CHANNELS 3 Zrotation Xrotation Yrotation
          End Site
          {
            OFFSET 0 0 7.8731
          }
        }
      }
    }
  }
  JOINT LeftUpLeg
  {
    OFFSET 9.1965 3.8864 -0.7581
    CHANNELS 3 Zrotation Xrotation Yrotation
    JOINT LeftLeg
    {
      OFFSET 0.7359 -41.0268 0
      CHANNELS 3 Zrotation Xrotation Yrotation
      JOINT LeftFoot
      {
        OFFSET 0 -40.2855 0
        CHANNELS 3 Zrotation Xrotation Yrotation
        JOINT LeftToeBase
        {
          OFFSET 0 -5.6122 11.7359
          CHANNELS 3 Zrotation Xrotation Yrotation
          End Site
          {
            OFFSET 0 0 7.8731
          }
        }
      }
    }
  }
}
MOTION
Frames:	4
Frame Time:	0.0333333
5.84602e-005 68.8428 3.50346 0 0 -0 0 0 -0 0 0 -0 0 0 -0 0 0 -0 0 0 -0 0 0 -0 0 0 -0 0 0 -0 0 0 -0 0 0 -0 0 0 -0 0 0 -0 0 0 -0 -0.0146107 -8.87603e-005 -2.63497e-007 2.99804e-018 -2.42657e-020 -1.42182e-022 0 0 -0 -0.0187562 -0.001176 5.858e-005 5.06224e-018 3.88251e-019 1.21329e-020 0 0 -0 -0.012269 -0.00324817 0.000675346 -1.74678e-018 3.88251e-019 -0 0 0 -0 0 0 -0 0 0 -0 0 0 -0 0 0 -0 0 0 -0 0 0 -0 0 0 -0 0 0 -0 0 0 -0 0 0 -0 0.0149955 -9.10982e-005 2.64101e-007 -9.69331e-018 1.21329e-020 -4.7394e-023 0 0 -0 0.0189956 -0.00119102 -5.96516e-005 -5.41541e-019 0 2.42657e-020 0 0 -0 0.0122698 -0.00324857 -0.000673756 -2.00796e-019 0 -1.94126e-019 0 0 -0 0 0 -0 0 0 -0 3.39842 1.33031 -0.0637918 -5.65207e-008 0.834868 -0.000436188 -3.39935 -2.16518 -0.0642563 -8.89002e-024 -1.18485e-023 -1.48106e-024 -3.39844 1.35642 0.0640283 -3.18788e-007 0.782166 -0.000588827 3.39931 -2.13858 0.0634662 1.1399e-023 0 -0 
-3.1438 10.7949 8.85945 -59.2287 -38.8878 110.357 0.27074 -2.96836 -0.0886825 0.53797 -5.93704 -0.16362 0.537976 -5.93706 -0.163626 -2.29418e-005 7.36576 3.7952e-006 4.61941e-006 -41.3307 2.43618e-006 19.0632 -27.4434 7.77997 -34.8646 -7.45912 -32.5037 1.51719 -36.6346 -69.3692 -8.0226 -8.50632 16.7604 1.41956e-006 -7.24828e-007 -5.36233e-007 1.41956e-006 -7.24828e-007 -5.36233e-007 1.41956e-006 -7.24828e-007 -5.36233e-007 1.41956e-006 -7.24828e-007 -5.36233e-007 -0.0145915 -8.90769e-005 -1.33171e-006 1.4196e-006 -7.2476e-007 -5.36326e-007 1.41956e-006 -7.24828e-007 -5.36233e-007 -0.0187534 -0.00117107 6.24252e-005 1.4196e-006 -7.24738e-007 -5.36366e-007 1.41956e-006 -7.24828e-007 -5.36233e-007 -0.0122487 -0.00323884 0.000663282 1.41957e-006 -7.24771e-007 -5.36352e-007 1.41956e-006 -7.24828e-007 -5.36233e-007 1.41956e-006 -7.24828e-007 -5.36233e-007 1.41956e-006 -7.24828e-007 -5.36233e-007 -19.2238 -27.4882 -7.44059 34.8778 -7.37007 32.4233 -1.42112 -36.9243 69.978 7.56931 -8.42351 -17.2678 -9.27048e-008 -1.82899e-006 2.04925e-007 -7.19278e-007 -1.24788e-006 6.37213e-008 -9.27049e-008 -1.82899e-006 2.04925e-007 -9.27048e-008 -1.82899e-006 2.04925e-007 0.0150404 -9.14749e-005 5.0707e-007 9.0815e-008 1.82897e-006 -2.05165e-007 -9.27048e-008 -1.82899e-006 2.04925e-007 0.0190443 -0.0011942 -5.85947e-005 9.03091e-008 1.82911e-006 -2.05222e-007 -9.27048e-008 -1.82899e-006 2.04925e-007 0.0122496 -0.00323939 -0.000673022 9.11493e-008 1.82937e-006 -2.05038e-007 -9.27048e-008 -1.82899e-006 2.04925e-007 -7.19278e-007 -1.24788e-006 6.37213e-008 -9.27049e-008 -1.82899e-006 2.04925e-007 -1.09126 0.0915494 -2.48981 -13.0569 74.1859 11.5244 -6.54777 39.5627 -3.13804 -1.39149e-015 -1.59028e-015 3.18055e-015 2.47943 -1.30797 2.52451 11.3192 73.4674 -10.3984 7.39735 39.1697 2.50853 3.86225e-007 -1.82853e-007 -3.76291e-011 
1.61082 -12.5194 15.371 117.661 -75.3762 -63.373 0.382627 -4.2754 -0.148613 0.757274 -8.55168 -0.26963 0.757274 -8.55166 -0.269629 -3.58002e-006 10.8432 4.90857e-006 -3.46699e-006 -60.6913 -3.79422e-006 30.8378 -39.4428 13.1041 -53.0801 -8.73912 -47.4018 -8.02447 -19.3758 -91.3165 -10.0151 -11.7407 24.5744 -8.80153e-007 -3.15524e-006 7.25876e-008 -8.80153e-007 -3.15524e-006 7.25876e-008 -8.80153e-007 -3.15524e-006 7.25876e-008 -8.80153e-007 -3.15524e-006 7.25876e-008 -0.0145939 -9.20898e-005 1.53922e-006 -8.79904e-007 -3.15525e-006 7.21865e-008 -8.80153e-007 -3.15524e-006 7.25876e-008 -0.0186896 -0.00117007 6.86473e-005 -8.79835e-007 -3.15523e-006 7.20808e-008 -8.80153e-007 -3.15524e-006 7.25876e-008 -0.0122693 -0.00325242 0.000678614 -8.7996e-007 -3.15519e-006 7.22631e-008 -8.80153e-007 -3.15524e-006 7.25876e-008 -8.80153e-007 -3.15524e-006 7.25876e-008 -8.80153e-007 -3.15524e-006 7.25876e-008 -30.9458 -39.5431 -12.5471 53.0639 -8.64547 47.279 8.01898 -19.3277 91.7525 9.32847 -11.5896 -25.3111 1.53779e-006 -2.5186e-006 -4.98398e-007 2.78484e-007 -3.2875e-006 3.24146e-007 -3.85785e-007 1.26729e-006 -3.34115e-006 1.53779e-006 -2.5186e-006 -4.98398e-007 0.0149647 -9.49842e-005 -3.16895e-006 -3.85956e-007 1.26686e-006 -3.34131e-006 1.53779e-006 -2.5186e-006 -4.98398e-007 0.0189773 -0.00119636 -6.03592e-005 -3.86034e-007 1.26675e-006 -3.34135e-006 1.53779e-006 -2.5186e-006 -4.98398e-007 0.012232 -0.00323705 -0.000672603 -3.86025e-007 1.26697e-006 -3.34127e-006 1.53779e-006 -2.5186e-006 -4.98398e-007 2.78484e-007 -3.2875e-006 3.24146e-007 -3.85785e-007 1.26729e-006 -3.34115e-006 -2.94656 -0.589221 -4.45099 -162.389 72.3182 158.171 -4.11506 59.3446 -7.78797 -1.62649e-006 -4.45556e-007 -1.47574e-006 4.9717 -2.68066 4.41498 161.239 73.3288 -157.987 6.06082 58.7901 6.30131 -2.64739e-007 5.75498e-008 3.2954e-007 
-0.002946 -7.46726 14.4955 -90.3963 -89.7304 89.3514 0.358745 -3.92174 -0.133889 0.71078 -7.84421 -0.243955 0.71078 -7.84425 -0.243955 1.19661e-005 10.4331 -9.61699e-006 -7.68259e-007 -58.083 -7.11737e-007 28.1713 -36.968 11.9865 -48.9412 -8.61684 -44.0869 -6.9975 -24.2572 -88.7702 -9.65488 -11.0712 22.8183 3.0415e-006 1.42159e-006 -1.47253e-006 1.17694e-006 -9.32285e-007 -7.21324e-007 1.17694e-006 -9.32285e-007 -7.21324e-007 3.0415e-006 1.42159e-006 -1.47253e-006 -0.0146381 -9.67608e-005 4.8177e-006 1.17698e-006 -9.32192e-007 -7.21444e-007 3.0415e-006 1.42159e-006 -1.47253e-006 -0.0187343 -0.00117639 5.57944e-005 1.17699e-006 -9.32163e-007 -7.21489e-007 3.0415e-006 1.42159e-006 -1.47253e-006 -0.0122941 -0.00325069 0.00067395 1.17695e-006 -9.32204e-007 -7.2146e-007 3.0415e-006 1.42159e-006 -1.47253e-006 1.17694e-006 -9.32285e-007 -7.21324e-007 1.17694e-006 -9.32285e-007 -7.21324e-007 -28.2995 -37.054 -11.4833 48.9325 -8.5215 43.9734 7.0362 -24.263 89.2934 9.02101 -10.9377 -23.5042 -1.14425e-006 -9.83171e-007 6.97485e-007 8.22093e-007 -3.27167e-006 -8.55975e-008 -1.14425e-006 -9.83171e-007 6.97485e-007 -1.14425e-006 -9.83171e-007 6.97485e-007 0.0149801 -8.86553e-005 2.93135e-006 -1.1443e-006 -9.83079e-007 6.97614e-007 -1.14425e-006 -9.83171e-007 6.97485e-007 0.0189429 -0.00118878 -5.80856e-005 -1.1443e-006 -9.83052e-007 6.9766e-007 -1.14425e-006 -9.83171e-007 6.97485e-007 0.0122137 -0.00323806 -0.000665687 -1.14426e-006 -9.83092e-007 6.97624e-007 -1.14425e-006 -9.83171e-007 6.97485e-007 8.22093e-007 -3.27167e-006 -8.55975e-008 -1.14425e-006 -9.83171e-007 6.97485e-007 -2.54153 -0.442414 -3.90882 -152.605 79.0325 149.131 -5.20787 54.9184 -6.23724 -1.88153e-007 -3.93849e-009 1.88526e-006 4.42382 -2.37931 3.90073 150.391 79.9688 -147.795 6.80563 54.3937 5.03927 4.97654e-007 -4.70283e-008 -1.67174e-006 
